<svg id="svg" version="1.1" width="400" height="400" viewBox="0 0 400 400" xmlns="http://www.w3.org/2000/svg" xmlns:xlink="http://www.w3.org/1999/xlink"><g id="svgg"><path id="path0" d="M210.662 70.700 C 210.560 70.865,211.432 71.000,212.600 71.000 C 213.768 71.000,214.640 70.865,214.538 70.700 C 214.436 70.535,213.564 70.400,212.600 70.400 C 211.636 70.400,210.764 70.535,210.662 70.700 M232.400 78.558 C 232.400 78.645,233.105 78.783,233.966 78.865 C 234.828 78.948,235.447 78.876,235.343 78.707 C 235.153 78.400,232.400 78.260,232.400 78.558 M237.600 93.095 C 236.610 93.181,235.673 93.375,235.519 93.527 C 235.364 93.679,236.084 93.740,237.119 93.663 C 238.153 93.586,239.171 93.360,239.380 93.161 C 239.589 92.963,239.679 92.831,239.580 92.870 C 239.481 92.908,238.590 93.010,237.600 93.095 M203.446 103.600 C 203.526 104.370,203.593 113.577,203.596 124.060 L 203.600 143.119 207.900 143.074 C 213.575 143.014,213.200 142.550,213.200 149.624 L 213.200 155.600 218.355 155.600 L 223.511 155.600 223.769 154.226 C 223.910 153.471,223.989 150.772,223.942 148.230 C 223.896 145.688,223.935 143.534,224.029 143.444 C 224.282 143.200,228.207 143.098,235.300 143.152 L 241.600 143.200 241.600 157.032 L 241.600 170.864 238.600 174.400 C 235.116 178.506,235.085 178.614,237.200 179.247 C 238.080 179.511,238.800 179.851,238.800 180.003 C 238.800 180.154,239.564 180.621,240.497 181.039 C 241.430 181.458,242.510 182.115,242.897 182.500 C 243.284 182.885,243.857 183.200,244.171 183.200 C 244.486 183.200,244.981 183.437,245.271 183.727 C 245.562 184.016,246.337 184.601,246.993 185.027 C 248.356 185.910,248.948 186.374,250.518 187.791 C 251.133 188.346,251.825 188.800,252.055 188.800 C 252.592 188.800,263.200 199.352,263.200 199.886 C 263.200 200.107,263.650 200.626,264.200 201.039 C 264.750 201.452,265.200 202.023,265.200 202.307 C 265.200 202.592,265.470 202.929,265.800 203.055 C 266.130 203.182,266.400 203.438,266.400 203.625 C 266.400 203.939,269.063 207.989,269.987 209.080 C 270.211 209.343,270.710 210.243,271.097 211.080 C 271.484 211.916,271.919 212.691,272.065 212.802 C 272.522 213.150,275.600 219.919,275.600 220.576 C 275.600 220.919,275.780 221.200,276.000 221.200 C 276.220 221.200,276.400 221.549,276.400 221.976 C 276.400 222.403,276.580 222.864,276.800 223.000 C 277.020 223.136,277.200 223.524,277.200 223.863 C 277.200 224.202,277.442 225.046,277.739 225.740 C 278.566 227.677,279.142 229.632,279.435 231.500 C 279.582 232.435,279.823 233.200,279.970 233.200 C 280.379 233.200,281.211 238.543,281.481 242.914 C 281.614 245.067,281.875 246.923,282.061 247.038 C 282.546 247.337,282.488 257.098,282.000 257.400 C 281.780 257.536,281.587 258.762,281.571 260.124 C 281.555 261.486,281.392 263.500,281.209 264.600 C 281.026 265.700,280.755 267.320,280.606 268.200 C 280.458 269.080,280.187 270.160,280.005 270.600 C 279.822 271.040,279.367 272.750,278.992 274.400 C 278.618 276.050,278.129 277.625,277.907 277.900 C 277.601 278.278,277.786 278.400,278.666 278.400 C 280.091 278.400,300.282 280.938,305.800 281.810 C 308.000 282.158,310.610 282.529,311.600 282.635 C 312.590 282.741,315.380 283.187,317.800 283.626 C 320.220 284.066,323.010 284.522,324.000 284.639 C 324.990 284.756,326.520 285.016,327.400 285.216 C 330.418 285.903,331.105 285.746,331.418 284.300 C 331.574 283.585,331.860 282.898,332.056 282.773 C 332.251 282.648,332.679 281.146,333.006 279.434 C 333.334 277.722,333.731 276.114,333.890 275.860 C 334.239 275.302,334.167 275.630,335.167 270.000 C 335.616 267.470,336.154 264.586,336.363 263.590 C 338.192 254.868,337.934 219.405,336.050 220.569 C 335.913 220.654,335.784 220.336,335.764 219.862 C 335.690 218.087,334.361 211.035,334.024 210.626 C 333.831 210.392,333.359 208.490,332.974 206.400 C 332.589 204.310,332.183 202.869,332.071 203.197 C 331.960 203.525,331.645 202.697,331.372 201.357 C 331.098 200.017,330.511 198.122,330.067 197.146 C 329.622 196.171,329.134 194.838,328.982 194.186 C 328.829 193.534,328.471 192.624,328.185 192.164 C 327.899 191.704,327.466 190.587,327.222 189.682 C 326.978 188.777,326.552 187.803,326.275 187.518 C 325.998 187.233,325.548 186.243,325.275 185.318 C 325.002 184.393,324.513 183.371,324.189 183.046 C 323.865 182.722,323.600 182.270,323.600 182.042 C 323.600 181.407,322.289 178.800,321.970 178.800 C 321.815 178.800,321.443 177.967,321.144 176.950 C 320.845 175.932,320.398 175.022,320.151 174.926 C 319.904 174.831,319.372 173.954,318.969 172.977 C 318.566 171.999,318.101 171.200,317.937 171.200 C 317.772 171.200,317.339 170.570,316.973 169.800 C 316.608 169.030,316.149 168.400,315.954 168.400 C 315.759 168.400,315.600 168.168,315.600 167.885 C 315.600 167.602,315.067 166.747,314.416 165.985 C 313.765 165.223,313.225 164.377,313.216 164.103 C 313.207 163.830,312.840 163.382,312.400 163.107 C 311.960 162.832,311.600 162.421,311.600 162.193 C 311.600 161.763,308.950 158.093,307.835 156.978 C 307.486 156.629,307.200 156.208,307.200 156.042 C 307.200 155.877,306.324 154.804,305.254 153.658 C 302.047 150.224,300.403 148.350,300.349 148.067 C 300.215 147.377,288.618 136.800,287.993 136.800 C 287.806 136.800,287.543 136.449,287.406 136.020 C 287.270 135.592,286.829 135.136,286.426 135.008 C 286.023 134.880,285.152 134.286,284.490 133.688 C 283.828 133.090,282.633 132.150,281.833 131.600 C 281.034 131.050,279.889 130.194,279.290 129.698 C 278.690 129.201,277.885 128.694,277.500 128.571 C 277.115 128.447,276.800 128.219,276.800 128.064 C 276.800 127.909,276.125 127.428,275.300 126.996 C 274.475 126.564,273.509 125.894,273.153 125.506 C 272.797 125.117,272.290 124.800,272.026 124.800 C 271.763 124.800,270.974 124.371,270.273 123.846 C 269.573 123.322,268.595 122.770,268.100 122.619 C 267.605 122.469,267.200 122.206,267.200 122.034 C 267.200 121.862,266.435 121.382,265.500 120.968 C 264.565 120.553,263.585 120.009,263.322 119.758 C 263.059 119.507,262.024 119.059,261.022 118.763 C 260.020 118.467,259.200 118.112,259.200 117.973 C 259.200 117.835,258.435 117.384,257.500 116.972 C 256.565 116.559,255.710 116.104,255.600 115.960 C 255.490 115.816,254.365 115.373,253.100 114.976 C 251.835 114.579,250.800 114.107,250.800 113.927 C 250.800 113.747,250.470 113.600,250.067 113.600 C 249.663 113.600,249.198 113.465,249.033 113.300 C 248.868 113.135,248.613 112.990,248.467 112.977 C 247.597 112.904,245.369 112.257,245.200 112.030 C 244.923 111.657,240.877 110.400,239.954 110.400 C 239.539 110.400,239.200 110.243,239.200 110.050 C 239.200 109.858,238.615 109.562,237.900 109.394 C 237.185 109.226,236.510 109.054,236.400 109.013 C 236.290 108.972,235.480 108.793,234.600 108.617 C 233.720 108.440,232.820 108.164,232.600 108.002 C 232.099 107.634,225.929 106.400,224.592 106.400 C 224.046 106.400,223.600 106.259,223.600 106.086 C 223.600 105.701,217.587 104.875,212.286 104.531 C 210.133 104.392,208.277 104.125,208.162 103.939 C 208.047 103.752,206.986 103.600,205.804 103.600 C 204.092 103.600,203.620 103.458,203.478 102.900 C 203.381 102.515,203.366 102.830,203.446 103.600 M188.800 103.939 C 188.800 104.125,186.746 104.388,184.235 104.522 C 179.357 104.784,172.730 105.611,172.400 106.000 C 172.290 106.130,170.850 106.452,169.200 106.715 C 164.445 107.472,163.413 107.692,163.200 107.990 C 163.024 108.237,160.972 108.769,157.500 109.469 C 156.895 109.591,156.400 109.850,156.400 110.045 C 156.400 110.240,156.094 110.400,155.720 110.400 C 154.638 110.400,150.400 111.745,150.400 112.089 C 150.400 112.260,150.136 112.400,149.814 112.400 C 149.042 112.400,145.456 113.618,145.200 113.967 C 145.090 114.116,144.243 114.460,143.318 114.730 C 142.393 115.000,141.403 115.447,141.118 115.723 C 140.833 115.999,139.811 116.480,138.847 116.794 C 137.883 117.107,136.893 117.564,136.647 117.810 C 136.401 118.056,135.345 118.584,134.300 118.983 C 133.255 119.382,132.400 119.827,132.400 119.972 C 132.400 120.117,131.590 120.570,130.600 120.978 C 129.610 121.387,128.800 121.873,128.800 122.060 C 128.800 122.247,128.594 122.400,128.343 122.400 C 127.909 122.400,122.822 125.451,122.400 125.964 C 122.290 126.098,121.525 126.562,120.700 126.995 C 119.875 127.428,119.200 127.909,119.200 128.064 C 119.200 128.219,118.872 128.450,118.471 128.578 C 118.069 128.705,117.384 129.122,116.949 129.505 C 116.513 129.887,115.878 130.380,115.538 130.600 C 114.569 131.227,111.461 133.532,110.828 134.093 C 110.514 134.372,109.794 134.914,109.228 135.297 C 108.663 135.681,108.380 135.997,108.600 135.999 C 108.820 136.001,108.415 136.360,107.700 136.796 C 106.985 137.232,106.400 137.771,106.400 137.994 C 106.400 138.217,106.168 138.400,105.884 138.400 C 105.030 138.400,90.400 153.524,90.400 154.407 C 90.400 154.623,90.142 154.800,89.827 154.800 C 89.512 154.800,89.146 155.140,89.014 155.555 C 88.882 155.971,88.375 156.758,87.887 157.304 C 86.273 159.111,85.505 160.116,84.708 161.465 C 84.275 162.199,83.776 162.800,83.600 162.800 C 83.423 162.800,83.090 163.340,82.860 164.000 C 82.630 164.660,82.261 165.200,82.040 165.200 C 81.818 165.200,81.320 165.869,80.932 166.687 C 80.544 167.504,79.906 168.494,79.513 168.887 C 79.121 169.279,78.800 169.792,78.800 170.027 C 78.800 170.261,78.350 171.043,77.800 171.764 C 77.250 172.486,76.800 173.271,76.800 173.509 C 76.800 173.748,76.564 174.181,76.276 174.471 C 75.614 175.140,74.400 177.564,74.400 178.219 C 74.400 178.491,74.174 178.801,73.899 178.907 C 73.623 179.013,73.151 179.797,72.849 180.650 C 72.548 181.502,72.077 182.470,71.801 182.800 C 71.526 183.130,71.072 184.120,70.793 185.000 C 70.513 185.880,70.085 186.728,69.842 186.885 C 69.599 187.042,69.387 187.312,69.372 187.485 C 69.284 188.480,68.258 191.437,67.930 191.641 C 67.562 191.871,66.988 193.688,66.522 196.096 C 66.406 196.699,66.166 197.103,65.990 196.994 C 65.814 196.885,65.346 198.192,64.951 199.898 C 64.556 201.604,64.101 203.094,63.940 203.209 C 63.779 203.324,63.334 205.034,62.951 207.009 C 62.568 208.984,62.110 210.699,61.932 210.821 C 61.755 210.942,61.312 212.962,60.949 215.310 C 60.540 217.956,60.134 219.483,59.883 219.327 C 59.659 219.189,59.583 219.249,59.713 219.460 C 59.844 219.671,59.798 220.553,59.611 221.422 C 58.822 225.099,57.431 249.355,58.031 248.982 C 58.158 248.903,58.483 251.934,58.752 255.719 C 59.022 259.504,59.422 263.410,59.641 264.400 C 59.860 265.390,60.394 268.171,60.827 270.581 C 61.261 272.991,61.759 275.061,61.935 275.181 C 62.111 275.301,62.486 276.750,62.767 278.400 C 63.048 280.050,63.526 281.913,63.828 282.540 C 64.131 283.167,64.495 284.302,64.638 285.061 C 64.878 286.340,64.983 286.423,66.056 286.188 C 66.693 286.048,67.912 285.881,68.763 285.818 C 69.614 285.754,70.477 285.600,70.679 285.475 C 70.881 285.350,73.916 284.777,77.423 284.201 C 80.930 283.625,84.340 283.058,85.000 282.941 C 85.660 282.823,86.740 282.666,87.400 282.591 C 88.060 282.516,90.488 282.166,92.795 281.813 C 95.103 281.460,97.803 281.080,98.795 280.969 C 99.788 280.858,101.140 280.697,101.800 280.612 C 102.460 280.527,106.150 280.062,110.000 279.579 C 113.850 279.096,117.152 278.563,117.337 278.394 C 117.658 278.101,116.698 272.689,116.025 271.000 C 115.310 269.203,114.790 266.185,114.541 262.388 C 114.396 260.179,114.125 258.277,113.939 258.162 C 113.521 257.904,113.484 246.249,113.900 245.835 C 114.065 245.671,114.421 243.436,114.692 240.868 C 115.335 234.768,115.611 233.200,116.044 233.200 C 116.240 233.200,116.400 232.807,116.400 232.326 C 116.400 230.948,117.651 226.282,118.254 225.411 C 118.554 224.977,118.800 224.307,118.800 223.921 C 118.800 222.866,122.954 213.989,124.754 211.198 C 126.050 209.188,126.410 208.588,126.673 208.000 C 126.821 207.670,127.046 207.310,127.173 207.200 C 127.755 206.697,129.600 204.013,129.600 203.669 C 129.600 203.458,129.870 203.182,130.200 203.055 C 130.530 202.929,130.800 202.547,130.800 202.207 C 130.800 201.296,143.672 188.592,146.273 186.936 C 146.893 186.541,147.490 186.123,147.600 186.007 C 148.164 185.411,150.770 183.632,152.000 183.003 C 152.770 182.610,153.490 182.168,153.600 182.021 C 153.710 181.875,154.400 181.512,155.134 181.215 C 155.868 180.918,156.678 180.471,156.934 180.222 C 157.190 179.973,158.255 179.447,159.300 179.052 C 160.345 178.657,161.200 178.169,161.200 177.967 C 161.200 177.765,161.560 177.600,162.000 177.600 C 163.337 177.600,162.914 176.553,160.395 173.626 L 157.989 170.831 158.095 157.116 L 158.200 143.400 167.000 143.400 L 175.800 143.400 175.910 149.500 L 176.021 155.600 181.400 155.600 L 186.779 155.600 186.890 149.500 L 187.000 143.400 192.600 143.160 C 195.680 143.028,198.245 142.893,198.300 142.860 C 198.355 142.827,198.400 133.980,198.400 123.200 L 198.400 103.600 193.600 103.600 C 190.960 103.600,188.800 103.752,188.800 103.939 M201.954 146.515 C 202.128 146.689,204.055 146.778,206.235 146.713 L 210.200 146.595 205.918 146.398 C 203.563 146.289,201.779 146.342,201.954 146.515 M163.900 146.697 C 165.495 146.773,168.105 146.773,169.700 146.697 C 171.295 146.621,169.990 146.559,166.800 146.559 C 163.610 146.559,162.305 146.621,163.900 146.697 M192.300 146.696 C 193.675 146.774,195.925 146.774,197.300 146.696 C 198.675 146.618,197.550 146.554,194.800 146.554 C 192.050 146.554,190.925 146.618,192.300 146.696 M229.900 146.697 C 231.495 146.773,234.105 146.773,235.700 146.697 C 237.295 146.621,235.990 146.559,232.800 146.559 C 229.610 146.559,228.305 146.621,229.900 146.697 M225.817 158.078 C 224.885 159.055,224.819 159.218,225.508 158.849 C 225.989 158.592,226.572 158.026,226.805 157.591 C 227.369 156.536,227.217 156.611,225.817 158.078 M173.167 157.745 C 173.700 158.401,175.200 159.393,175.200 159.089 C 175.200 159.013,174.615 158.522,173.900 157.999 C 173.096 157.410,172.816 157.313,173.167 157.745 M168.200 180.200 C 168.200 181.588,168.335 182.640,168.500 182.538 C 168.665 182.436,168.800 181.384,168.800 180.200 C 168.800 179.016,168.665 177.964,168.500 177.862 C 168.335 177.760,168.200 178.812,168.200 180.200 M231.200 183.176 C 231.200 183.823,231.342 184.441,231.516 184.548 C 231.690 184.656,231.761 184.127,231.673 183.372 C 231.476 181.691,231.200 181.577,231.200 183.176 M166.617 189.300 C 166.287 190.346,166.157 192.350,166.430 192.181 C 166.587 192.084,166.784 191.284,166.868 190.403 C 167.021 188.806,166.917 188.350,166.617 189.300 M233.135 192.436 C 233.217 193.299,233.404 194.079,233.550 194.169 C 233.695 194.259,233.747 193.627,233.665 192.764 C 233.583 191.901,233.396 191.121,233.250 191.031 C 233.105 190.941,233.053 191.573,233.135 192.436 M164.509 199.600 C 164.509 200.590,164.587 200.995,164.682 200.500 C 164.778 200.005,164.778 199.195,164.682 198.700 C 164.587 198.205,164.509 198.610,164.509 199.600 M235.309 201.600 C 235.309 202.590,235.387 202.995,235.482 202.500 C 235.578 202.005,235.578 201.195,235.482 200.700 C 235.387 200.205,235.309 200.610,235.309 201.600 M162.620 207.700 C 162.262 208.853,162.137 210.362,162.414 210.192 C 162.577 210.090,162.785 209.376,162.875 208.604 C 163.039 207.202,162.913 206.755,162.620 207.700 M237.128 210.632 C 237.216 211.388,237.411 212.083,237.561 212.176 C 237.710 212.268,237.761 211.725,237.672 210.968 C 237.584 210.212,237.389 209.517,237.239 209.424 C 237.090 209.332,237.039 209.875,237.128 210.632 M160.368 217.300 C 160.249 218.160,160.310 218.650,160.512 218.448 C 160.705 218.255,160.798 217.581,160.719 216.949 C 160.587 215.891,160.559 215.919,160.368 217.300 M239.180 220.110 C 239.375 221.758,239.383 221.767,239.519 220.449 C 239.596 219.706,239.506 218.946,239.320 218.760 C 239.133 218.573,239.071 219.181,239.180 220.110 M158.617 225.300 C 158.287 226.346,158.157 228.350,158.430 228.181 C 158.587 228.084,158.784 227.284,158.868 226.403 C 159.021 224.806,158.917 224.350,158.617 225.300 M241.128 228.632 C 241.216 229.388,241.411 230.083,241.561 230.176 C 241.710 230.268,241.761 229.725,241.672 228.968 C 241.584 228.212,241.389 227.517,241.239 227.424 C 241.090 227.332,241.039 227.875,241.128 228.632 M156.368 235.300 C 156.249 236.160,156.310 236.650,156.512 236.448 C 156.705 236.255,156.798 235.581,156.719 234.949 C 156.587 233.891,156.559 233.919,156.368 235.300 M243.168 238.300 C 243.359 239.681,243.387 239.709,243.519 238.651 C 243.598 238.019,243.505 237.345,243.312 237.152 C 243.110 236.950,243.049 237.440,243.168 238.300 M154.617 243.300 C 154.287 244.346,154.157 246.350,154.430 246.181 C 154.587 246.084,154.784 245.284,154.868 244.403 C 155.021 242.806,154.917 242.350,154.617 243.300 M245.200 247.176 C 245.200 247.823,245.342 248.441,245.516 248.548 C 245.690 248.656,245.761 248.127,245.673 247.372 C 245.476 245.691,245.200 245.577,245.200 247.176 M187.399 247.700 C 187.099 248.554,186.984 257.580,187.277 257.282 C 187.534 257.019,187.935 247.198,187.687 247.199 C 187.626 247.200,187.496 247.425,187.399 247.700 M152.509 253.600 C 152.509 254.590,152.587 254.995,152.682 254.500 C 152.778 254.005,152.778 253.195,152.682 252.700 C 152.587 252.205,152.509 252.610,152.509 253.600 M247.168 256.300 C 247.359 257.681,247.387 257.709,247.519 256.651 C 247.598 256.019,247.505 255.345,247.312 255.152 C 247.110 254.950,247.049 255.440,247.168 256.300 M212.454 258.276 C 212.425 259.638,212.535 260.836,212.700 260.938 C 212.865 261.040,212.947 260.286,212.883 259.262 C 212.684 256.088,212.511 255.691,212.454 258.276 M212.564 263.751 C 212.447 264.054,212.411 265.179,212.484 266.251 L 212.615 268.200 212.808 265.699 C 213.002 263.173,212.949 262.747,212.564 263.751 M249.152 264.487 C 249.337 265.598,249.393 265.655,249.519 264.854 C 249.601 264.333,249.503 263.743,249.301 263.541 C 249.079 263.319,249.021 263.693,249.152 264.487 M148.556 270.971 C 148.435 271.285,148.404 271.960,148.486 272.471 C 148.595 273.154,148.688 273.004,148.837 271.900 C 149.047 270.347,148.936 269.981,148.556 270.971 M251.168 274.300 C 251.359 275.681,251.387 275.709,251.519 274.651 C 251.598 274.019,251.505 273.345,251.312 273.152 C 251.110 272.950,251.049 273.440,251.168 274.300 M132.600 280.294 C 131.720 280.382,130.870 280.581,130.710 280.736 C 130.551 280.892,131.181 280.951,132.110 280.869 C 133.040 280.786,133.971 280.556,134.180 280.359 C 134.389 280.162,134.479 280.030,134.380 280.067 C 134.281 280.104,133.480 280.206,132.600 280.294 M266.400 280.558 C 266.400 280.645,267.105 280.783,267.966 280.865 C 268.828 280.948,269.447 280.876,269.343 280.707 C 269.153 280.400,266.400 280.260,266.400 280.558 M113.091 282.689 C 113.801 282.777,115.061 282.779,115.891 282.692 C 116.721 282.605,116.140 282.533,114.600 282.531 C 113.060 282.529,112.381 282.600,113.091 282.689 M282.800 282.627 C 284.144 282.927,287.111 282.980,286.938 282.700 C 286.836 282.535,285.728 282.421,284.476 282.446 C 283.224 282.472,282.470 282.553,282.800 282.627 M98.800 284.295 C 97.810 284.381,96.873 284.575,96.719 284.727 C 96.564 284.879,97.284 284.940,98.319 284.863 C 99.353 284.786,100.371 284.560,100.580 284.361 C 100.789 284.163,100.879 284.031,100.780 284.070 C 100.681 284.108,99.790 284.210,98.800 284.295 M299.305 284.687 C 299.914 284.779,300.814 284.777,301.305 284.682 C 301.797 284.587,301.300 284.511,300.200 284.514 C 299.100 284.517,298.697 284.595,299.305 284.687 M85.000 286.294 C 84.120 286.382,83.270 286.581,83.110 286.736 C 82.951 286.892,83.581 286.951,84.510 286.869 C 85.440 286.786,86.371 286.556,86.580 286.359 C 86.789 286.162,86.879 286.030,86.780 286.067 C 86.681 286.104,85.880 286.206,85.000 286.294 M312.400 286.558 C 312.400 286.645,313.105 286.783,313.966 286.865 C 314.828 286.948,315.447 286.876,315.343 286.707 C 315.153 286.400,312.400 286.260,312.400 286.558 M73.000 288.291 C 71.284 288.535,70.920 289.072,72.604 288.875 C 73.376 288.785,74.106 288.551,74.227 288.356 C 74.348 288.160,74.392 288.027,74.324 288.060 C 74.256 288.093,73.660 288.197,73.000 288.291 M324.400 288.558 C 324.400 288.645,325.105 288.783,325.966 288.865 C 326.828 288.948,327.447 288.876,327.343 288.707 C 327.153 288.400,324.400 288.260,324.400 288.558 M117.411 289.100 C 113.237 289.165,109.690 289.349,109.530 289.509 C 109.370 289.669,112.693 289.747,116.917 289.683 C 121.140 289.618,124.767 289.393,124.977 289.183 C 125.188 288.972,125.279 288.841,125.180 288.891 C 125.081 288.940,121.585 289.035,117.411 289.100 M278.200 289.473 C 284.025 289.761,290.310 289.775,290.139 289.500 C 290.037 289.335,286.768 289.235,282.876 289.277 C 278.984 289.319,276.880 289.408,278.200 289.473 M61.200 290.293 C 59.231 290.524,58.875 291.052,60.813 290.867 C 61.689 290.784,62.505 290.555,62.626 290.358 C 62.748 290.161,62.792 290.029,62.724 290.064 C 62.656 290.099,61.970 290.202,61.200 290.293 M336.400 290.558 C 336.400 290.645,337.105 290.783,337.966 290.865 C 338.828 290.948,339.447 290.876,339.343 290.707 C 339.153 290.400,336.400 290.260,336.400 290.558 M78.800 291.200 L 74.600 291.443 78.676 291.522 C 81.051 291.567,82.856 291.433,83.000 291.200 C 83.136 290.980,83.192 290.835,83.124 290.878 C 83.056 290.921,81.110 291.066,78.800 291.200 M317.200 291.459 C 320.512 291.753,324.712 291.776,324.540 291.500 C 324.437 291.335,322.428 291.230,320.076 291.267 C 317.724 291.304,316.430 291.390,317.200 291.459 M51.200 292.400 L 49.800 292.695 51.076 292.747 C 51.778 292.776,52.464 292.620,52.600 292.400 C 52.736 292.180,52.792 292.024,52.724 292.053 C 52.656 292.082,51.970 292.238,51.200 292.400 M346.400 292.556 C 346.400 292.642,347.017 292.785,347.772 292.873 C 348.527 292.961,349.056 292.890,348.948 292.716 C 348.755 292.403,346.400 292.255,346.400 292.556 M51.452 293.516 C 51.344 293.690,51.873 293.761,52.628 293.673 C 53.383 293.585,54.000 293.442,54.000 293.356 C 54.000 293.055,51.645 293.203,51.452 293.516 M343.300 293.491 C 344.125 293.578,345.475 293.578,346.300 293.491 C 347.125 293.405,346.450 293.334,344.800 293.334 C 343.150 293.334,342.475 293.405,343.300 293.491 " stroke="none" fill="#bbd3eb" fill-rule="evenodd"></path><path id="path1" d="M198.820 65.376 C 198.412 65.868,198.339 73.740,198.455 104.695 L 198.600 143.400 192.900 143.511 L 187.200 143.622 187.200 149.822 L 187.200 156.022 181.500 155.911 L 175.800 155.800 175.690 149.692 L 175.579 143.584 166.890 143.692 L 158.200 143.800 158.101 157.000 L 158.001 170.200 160.601 173.277 C 162.030 174.969,163.200 176.627,163.200 176.961 C 163.200 177.295,163.673 178.006,164.252 178.543 L 165.303 179.518 164.771 182.259 C 164.478 183.767,164.115 185.090,163.964 185.200 C 163.722 185.377,163.267 187.851,162.531 193.000 C 162.406 193.880,162.165 194.690,161.996 194.800 C 161.828 194.910,161.473 196.260,161.208 197.800 C 160.381 202.609,160.297 202.995,160.022 203.200 C 159.787 203.375,159.324 205.789,158.545 210.900 C 158.419 211.725,158.155 212.400,157.958 212.400 C 157.761 212.400,157.601 212.715,157.603 213.100 C 157.607 214.314,156.260 220.991,155.969 221.200 C 155.724 221.375,155.368 223.291,154.538 228.900 C 154.416 229.725,154.155 230.400,153.958 230.400 C 153.761 230.400,153.601 230.715,153.603 231.100 C 153.607 232.314,152.260 238.991,151.969 239.200 C 151.815 239.310,151.482 240.750,151.229 242.400 C 150.438 247.540,150.305 248.194,150.006 248.400 C 149.753 248.574,149.281 250.975,148.511 256.000 C 148.393 256.770,148.167 257.490,148.009 257.600 C 147.666 257.838,146.400 263.985,146.400 265.408 C 146.400 265.954,146.239 266.400,146.042 266.400 C 145.845 266.400,145.601 267.075,145.500 267.900 C 145.065 271.440,144.185 275.437,143.739 275.900 C 143.290 276.366,140.947 276.585,126.900 277.475 C 124.865 277.604,123.200 277.864,123.200 278.055 C 123.200 278.245,121.955 278.400,120.433 278.400 C 118.833 278.400,117.607 278.579,117.525 278.826 C 117.444 279.068,114.803 279.481,111.391 279.784 C 108.096 280.077,105.130 280.422,104.800 280.550 C 104.153 280.801,104.110 280.807,95.862 281.760 C 92.816 282.112,90.202 282.475,90.053 282.567 C 89.759 282.749,88.225 282.997,82.400 283.805 C 80.310 284.095,76.620 284.691,74.200 285.129 C 68.904 286.088,66.332 286.463,64.200 286.584 C 61.763 286.722,55.426 287.719,55.200 287.999 C 54.981 288.271,48.230 289.607,47.100 289.603 C 46.715 289.601,46.400 289.761,46.400 289.958 C 46.400 290.155,45.725 290.405,44.900 290.514 C 41.575 290.952,37.788 291.706,37.600 291.968 C 37.490 292.121,35.600 292.589,33.400 293.008 C 31.200 293.427,29.310 293.885,29.200 294.025 C 28.958 294.335,27.430 294.721,24.100 295.317 C 22.725 295.563,21.600 295.907,21.600 296.082 C 21.600 296.257,21.161 296.400,20.624 296.400 C 20.087 296.400,19.546 296.563,19.423 296.763 C 19.300 296.962,18.299 297.249,17.200 297.400 C 16.100 297.551,15.200 297.818,15.200 297.992 C 15.200 298.167,14.705 298.409,14.100 298.531 C 10.600 299.237,8.576 299.764,8.400 300.017 C 8.290 300.175,6.895 300.620,5.300 301.006 C 3.705 301.392,2.400 301.864,2.400 302.054 C 2.400 302.244,1.961 302.400,1.424 302.400 C 0.463 302.400,-0.295 303.038,0.144 303.478 C 0.476 303.809,10.891 302.495,11.165 302.087 C 11.294 301.895,14.534 301.445,18.365 301.087 C 22.196 300.729,25.436 300.281,25.565 300.092 C 25.694 299.903,29.483 299.439,33.985 299.060 C 38.487 298.681,42.267 298.223,42.385 298.042 C 42.503 297.860,46.819 297.417,51.976 297.057 C 57.133 296.696,61.453 296.251,61.576 296.066 C 61.699 295.882,67.916 295.422,75.390 295.043 C 82.865 294.665,89.075 294.209,89.190 294.031 C 89.306 293.854,96.060 293.503,104.200 293.253 C 134.184 292.331,134.593 292.312,134.885 291.851 C 135.291 291.211,265.104 291.204,265.515 291.844 C 265.698 292.130,268.582 292.379,273.600 292.542 C 277.890 292.681,287.880 293.001,295.800 293.253 C 303.720 293.505,310.296 293.858,310.413 294.038 C 310.530 294.219,316.560 294.667,323.813 295.036 C 331.066 295.405,337.093 295.849,337.206 296.024 C 337.319 296.199,341.729 296.655,347.006 297.039 C 352.283 297.422,356.700 297.884,356.823 298.066 C 356.945 298.248,360.635 298.695,365.023 299.061 C 369.410 299.426,373.103 299.881,373.229 300.072 C 373.355 300.262,376.595 300.714,380.429 301.076 C 384.263 301.437,387.498 301.879,387.618 302.058 C 387.872 302.436,399.557 303.776,399.870 303.463 C 400.297 303.036,399.523 302.400,398.576 302.400 C 398.039 302.400,397.600 302.244,397.600 302.054 C 397.600 301.864,396.295 301.392,394.700 301.006 C 393.105 300.620,391.710 300.175,391.600 300.017 C 391.424 299.764,389.400 299.237,385.900 298.531 C 385.295 298.409,384.800 298.150,384.800 297.955 C 384.800 297.760,384.575 297.603,384.300 297.607 C 383.198 297.622,377.600 296.208,377.600 295.914 C 377.600 295.741,377.311 295.600,376.957 295.600 C 376.034 295.600,370.638 294.289,370.400 294.007 C 370.200 293.770,365.914 292.895,363.100 292.517 C 362.275 292.407,361.600 292.155,361.600 291.958 C 361.600 291.761,361.285 291.601,360.900 291.603 C 359.721 291.607,353.013 290.264,352.800 289.981 C 352.613 289.733,348.635 288.982,345.000 288.510 C 344.120 288.396,343.310 288.167,343.200 288.000 C 343.002 287.701,338.386 286.896,334.700 286.518 C 333.655 286.411,332.800 286.144,332.800 285.926 C 332.800 285.687,332.184 285.634,331.250 285.792 C 330.398 285.936,328.643 285.868,327.350 285.641 C 326.058 285.414,324.234 285.142,323.297 285.036 C 322.361 284.930,321.410 284.730,321.186 284.591 C 320.838 284.376,318.129 283.972,310.800 283.040 C 310.030 282.942,308.590 282.680,307.600 282.457 C 306.610 282.234,303.820 281.845,301.400 281.592 C 298.980 281.340,295.650 280.888,294.000 280.589 C 292.350 280.289,288.750 279.841,286.000 279.593 C 280.190 279.068,277.200 278.502,277.200 277.926 C 277.200 277.670,275.936 277.570,273.800 277.659 C 271.930 277.737,270.353 277.661,270.297 277.490 C 270.240 277.320,266.955 276.985,262.997 276.746 C 259.039 276.506,255.696 276.145,255.568 275.943 C 255.441 275.740,255.094 274.140,254.798 272.387 C 254.501 270.634,254.134 269.200,253.981 269.200 C 253.829 269.200,253.608 268.435,253.490 267.500 C 253.078 264.220,252.227 259.798,251.970 259.600 C 251.683 259.379,251.386 258.001,250.719 253.800 C 250.474 252.260,250.147 250.910,249.992 250.800 C 249.837 250.690,249.612 250.060,249.492 249.400 C 249.371 248.740,249.046 246.940,248.769 245.400 C 248.492 243.860,248.137 242.510,247.981 242.400 C 247.825 242.290,247.593 241.480,247.467 240.600 C 246.778 235.824,246.244 232.978,246.003 232.800 C 245.854 232.690,245.398 230.755,244.991 228.500 C 244.583 226.245,244.121 224.400,243.965 224.400 C 243.809 224.400,243.583 223.635,243.463 222.700 C 242.932 218.536,242.288 214.984,242.031 214.800 C 241.689 214.554,240.394 207.817,240.397 206.300 C 240.399 205.695,240.256 205.200,240.080 205.200 C 239.739 205.200,239.005 201.956,238.565 198.500 C 238.417 197.345,238.159 196.400,237.990 196.400 C 237.822 196.400,237.584 195.725,237.462 194.900 C 236.632 189.291,236.276 187.375,236.031 187.200 C 235.251 186.640,234.314 179.452,234.961 178.979 C 235.312 178.722,235.600 178.246,235.600 177.921 C 235.600 177.596,236.860 175.881,238.400 174.111 L 241.200 170.892 241.200 157.246 L 241.200 143.600 232.600 143.600 L 224.000 143.600 224.000 149.811 L 224.000 156.023 218.500 155.911 L 213.000 155.800 212.890 149.712 L 212.779 143.624 207.890 143.512 L 203.000 143.400 202.910 122.718 C 202.852 109.599,202.962 101.947,203.210 101.794 C 203.424 101.661,203.600 101.031,203.600 100.392 C 203.600 99.372,203.805 99.172,205.300 98.736 C 206.235 98.462,207.125 98.055,207.278 97.831 C 207.459 97.567,212.480 97.415,221.478 97.403 C 234.660 97.384,242.626 96.881,243.197 96.031 C 243.309 95.865,244.975 95.402,246.900 95.002 C 248.825 94.602,250.400 94.123,250.400 93.937 C 250.400 93.752,250.839 93.600,251.376 93.600 C 251.913 93.600,252.451 93.440,252.572 93.245 C 252.693 93.050,253.423 92.772,254.196 92.627 C 256.571 92.181,255.936 90.400,253.401 90.400 C 252.887 90.400,252.402 90.207,252.323 89.970 C 252.245 89.734,250.932 89.278,249.407 88.959 C 247.881 88.639,246.536 88.221,246.417 88.030 C 246.297 87.839,245.430 87.476,244.490 87.223 C 242.525 86.695,242.777 86.070,245.395 84.976 C 246.178 84.649,247.129 84.110,247.509 83.779 C 249.964 81.637,251.009 80.800,251.230 80.800 C 251.934 80.800,256.470 75.750,256.672 74.742 C 256.902 73.588,254.707 72.887,254.333 73.996 C 253.707 75.853,231.200 75.859,231.200 74.002 C 231.200 73.841,230.390 73.399,229.400 73.021 C 228.410 72.643,227.600 72.189,227.600 72.012 C 227.600 71.836,226.970 71.392,226.200 71.027 C 225.430 70.661,224.800 70.212,224.800 70.028 C 224.800 69.844,224.395 69.595,223.900 69.474 C 220.238 68.583,219.385 68.300,219.134 67.893 C 218.741 67.257,206.888 67.216,206.486 67.850 C 205.509 69.387,203.745 68.858,203.370 66.916 L 203.000 65.000 201.165 64.881 C 199.888 64.798,199.175 64.948,198.820 65.376 M218.772 71.369 C 219.337 71.660,220.520 72.119,221.400 72.390 C 222.280 72.660,223.990 73.550,225.200 74.368 C 230.640 78.044,233.500 78.794,242.100 78.798 C 245.125 78.799,247.600 78.946,247.600 79.125 C 247.600 79.564,245.348 81.214,243.467 82.152 C 237.887 84.935,237.765 88.727,243.201 90.366 C 247.584 91.687,245.194 92.815,235.900 93.811 C 234.635 93.947,233.600 94.225,233.600 94.429 C 233.600 94.945,218.120 94.917,217.800 94.400 C 217.664 94.180,215.954 94.000,214.000 94.000 C 212.046 94.000,210.336 94.180,210.200 94.400 C 210.064 94.620,209.226 94.800,208.338 94.800 C 206.515 94.800,202.537 95.855,202.180 96.433 C 201.395 97.702,201.200 95.226,201.200 84.000 C 201.200 71.755,201.345 70.385,202.515 71.555 C 203.064 72.104,205.299 72.141,205.830 71.610 C 207.017 70.423,216.588 70.245,218.772 71.369 M206.089 146.400 L 210.000 146.400 210.000 151.542 C 210.000 156.479,210.040 156.726,211.005 157.768 L 212.011 158.853 218.786 158.726 C 227.160 158.570,226.565 159.076,226.730 151.981 L 226.860 146.400 232.830 146.400 L 238.800 146.400 238.800 157.800 C 238.800 167.470,238.707 169.306,238.187 169.900 C 237.850 170.285,236.116 172.293,234.334 174.363 L 231.093 178.127 231.346 181.122 C 231.486 182.769,231.849 184.617,232.154 185.228 C 232.459 185.839,232.921 187.927,233.182 189.869 C 233.442 191.811,233.904 193.940,234.208 194.600 C 234.511 195.260,235.049 197.686,235.402 199.990 C 235.756 202.295,236.202 204.278,236.395 204.397 C 236.587 204.515,236.961 206.230,237.226 208.206 C 237.491 210.183,237.942 212.340,238.229 213.000 C 238.515 213.660,239.026 215.986,239.364 218.170 C 239.702 220.353,240.137 222.243,240.331 222.370 C 240.525 222.496,240.788 223.410,240.914 224.400 C 241.348 227.796,241.946 230.725,242.357 231.462 C 242.584 231.868,243.035 233.982,243.360 236.161 C 243.684 238.339,244.106 240.229,244.296 240.361 C 244.486 240.492,244.877 242.310,245.163 244.400 C 245.450 246.490,245.928 248.650,246.225 249.200 C 246.522 249.750,247.031 251.982,247.357 254.161 C 247.683 256.339,248.107 258.229,248.299 258.361 C 248.491 258.492,248.971 260.490,249.366 262.800 C 249.762 265.110,250.221 267.180,250.387 267.400 C 250.554 267.620,250.807 268.700,250.951 269.800 C 251.993 277.784,252.826 279.200,256.480 279.200 C 257.668 279.200,258.811 279.360,259.020 279.556 C 259.229 279.752,261.380 280.015,263.800 280.140 C 271.530 280.540,277.928 281.150,278.675 281.558 C 279.074 281.776,282.730 282.242,286.800 282.595 C 290.870 282.947,294.560 283.395,295.000 283.591 C 295.440 283.787,298.680 284.239,302.200 284.596 C 305.720 284.953,308.960 285.404,309.400 285.598 C 309.840 285.792,312.720 286.252,315.800 286.621 C 318.880 286.990,321.490 287.418,321.600 287.573 C 321.789 287.839,326.208 288.464,332.000 289.044 C 333.430 289.187,334.790 289.454,335.021 289.636 C 335.253 289.818,337.413 290.256,339.821 290.607 C 342.230 290.959,344.503 291.411,344.874 291.610 C 345.244 291.810,347.314 292.266,349.474 292.622 C 353.429 293.275,355.600 293.940,355.600 294.498 C 355.600 294.921,353.731 294.875,352.895 294.431 C 352.257 294.092,344.302 293.388,336.000 292.935 C 334.130 292.833,332.240 292.594,331.800 292.404 C 331.033 292.073,318.109 291.286,307.600 290.932 C 304.850 290.839,302.240 290.605,301.800 290.411 C 300.843 289.990,275.803 289.172,256.000 288.914 C 248.190 288.813,241.629 288.566,241.420 288.365 C 240.908 287.873,161.085 287.878,160.580 288.370 C 160.368 288.576,153.740 288.817,145.600 288.914 C 126.303 289.143,97.852 290.032,97.600 290.414 C 97.490 290.580,95.060 290.801,92.200 290.904 C 81.958 291.273,67.796 292.139,67.600 292.408 C 67.426 292.647,65.110 292.836,55.800 293.376 C 50.559 293.679,46.353 294.152,46.163 294.460 C 45.870 294.934,43.701 294.887,43.400 294.400 C 43.264 294.180,43.513 294.000,43.953 294.000 C 44.393 294.000,44.845 293.850,44.959 293.667 C 45.072 293.484,46.747 293.104,48.682 292.823 C 50.617 292.542,52.740 292.070,53.400 291.773 C 54.060 291.477,56.561 290.966,58.958 290.639 C 61.355 290.312,63.506 289.854,63.738 289.622 C 63.970 289.390,64.799 289.201,65.580 289.203 C 67.617 289.207,76.086 288.021,76.815 287.629 C 77.153 287.448,80.033 286.983,83.215 286.596 C 86.397 286.209,89.180 285.754,89.400 285.584 C 89.620 285.414,92.770 284.981,96.400 284.622 C 100.030 284.262,103.360 283.802,103.800 283.600 C 104.240 283.397,107.641 282.968,111.358 282.645 C 115.075 282.323,118.225 281.897,118.358 281.699 C 118.585 281.362,128.888 280.493,137.000 280.126 C 138.980 280.037,140.960 279.805,141.400 279.612 C 141.840 279.419,142.990 279.171,143.955 279.061 C 146.155 278.811,146.801 278.171,147.093 275.955 C 147.220 274.990,147.548 273.840,147.821 273.400 C 148.095 272.960,148.539 270.980,148.807 269.000 C 149.075 267.020,149.423 265.220,149.580 265.000 C 149.737 264.780,150.188 262.800,150.583 260.600 C 150.978 258.400,151.539 256.060,151.831 255.400 C 152.122 254.740,152.577 252.670,152.842 250.800 C 153.106 248.930,153.537 247.040,153.800 246.600 C 154.063 246.160,154.501 244.132,154.773 242.093 C 155.045 240.055,155.503 237.895,155.789 237.293 C 156.076 236.692,156.538 234.670,156.816 232.800 C 157.095 230.930,157.537 229.040,157.800 228.600 C 158.063 228.160,158.501 226.132,158.773 224.093 C 159.045 222.055,159.503 219.895,159.789 219.293 C 160.076 218.692,160.538 216.670,160.816 214.800 C 161.095 212.930,161.542 211.040,161.812 210.600 C 162.081 210.160,162.525 208.096,162.798 206.014 C 163.070 203.932,163.518 201.862,163.792 201.414 C 164.066 200.966,164.527 198.980,164.815 197.000 C 165.104 195.020,165.551 193.040,165.809 192.600 C 166.067 192.160,166.502 190.124,166.775 188.075 C 167.049 186.027,167.525 183.867,167.834 183.275 C 169.019 181.004,168.585 178.241,166.700 176.055 C 165.765 174.970,164.105 173.042,163.012 171.770 L 161.023 169.456 160.864 157.928 L 160.705 146.400 166.752 146.400 L 172.800 146.400 172.800 151.220 C 172.800 158.853,172.720 158.786,181.919 158.795 C 190.089 158.802,190.000 158.881,190.000 151.574 L 190.000 146.465 195.067 146.333 C 198.665 146.238,200.183 146.055,200.300 145.701 C 200.427 145.318,200.667 145.342,201.322 145.801 C 201.941 146.234,203.262 146.400,206.089 146.400 M194.503 239.464 C 192.784 240.073,188.800 243.995,188.800 245.080 C 188.800 245.366,188.633 245.600,188.429 245.600 C 187.881 245.600,187.661 248.509,187.219 261.596 C 186.971 268.956,186.667 273.444,186.411 273.530 C 185.585 273.805,186.032 275.570,187.231 276.769 L 188.462 278.000 199.572 278.000 L 210.683 278.000 211.757 277.004 L 212.832 276.009 212.643 268.304 C 212.162 248.725,211.521 243.600,209.553 243.600 C 209.359 243.600,209.200 243.365,209.200 243.078 C 209.200 239.891,199.815 237.583,194.503 239.464 M202.400 241.968 C 202.400 242.171,202.915 242.449,203.544 242.588 C 204.603 242.820,207.200 245.251,207.200 246.010 C 207.200 246.193,207.515 246.657,207.900 247.042 C 208.455 247.596,208.628 248.596,208.736 251.870 C 208.812 254.172,209.044 256.000,209.260 256.000 C 209.473 256.000,209.517 256.211,209.357 256.470 C 208.905 257.201,209.209 261.756,209.732 262.096 C 210.078 262.321,210.057 262.492,209.649 262.755 C 209.201 263.044,209.153 264.192,209.391 268.955 L 209.683 274.800 199.642 274.800 L 189.600 274.800 189.600 272.600 C 189.600 271.390,189.780 270.400,190.000 270.400 C 190.243 270.400,190.409 268.551,190.424 265.700 C 190.475 255.834,191.042 247.105,191.664 246.639 C 191.987 246.398,192.593 245.615,193.011 244.900 C 193.430 244.185,193.927 243.600,194.115 243.600 C 194.303 243.600,194.727 243.330,195.057 243.000 C 195.387 242.670,196.004 242.400,196.429 242.400 C 196.853 242.400,197.200 242.220,197.200 242.000 C 197.200 241.774,198.333 241.600,199.800 241.600 C 201.230 241.600,202.400 241.766,202.400 241.968 " stroke="none" fill="#041424" fill-rule="evenodd"></path><path id="path2" d="M208.600 71.306 C 207.280 71.553,205.165 71.764,203.900 71.777 L 201.600 71.800 201.600 84.087 C 201.600 94.845,201.675 96.346,202.200 96.145 C 202.530 96.018,202.800 95.782,202.800 95.621 C 202.800 94.623,207.899 94.230,221.037 94.215 C 230.448 94.205,234.849 94.062,235.237 93.754 C 235.547 93.508,237.043 93.185,238.562 93.036 C 243.500 92.551,245.485 91.997,244.600 91.350 C 244.186 91.048,243.521 90.800,243.124 90.800 C 242.726 90.800,242.400 90.642,242.400 90.450 C 242.400 90.258,241.905 89.992,241.300 89.861 C 236.741 88.870,238.038 84.762,243.972 81.400 C 247.725 79.274,247.823 79.326,239.725 79.126 C 234.753 79.002,232.603 78.809,232.492 78.475 C 232.405 78.214,232.033 78.000,231.667 77.999 C 230.799 77.998,224.684 74.858,224.320 74.227 C 224.165 73.959,223.310 73.500,222.420 73.206 C 221.529 72.912,220.800 72.521,220.800 72.336 C 220.800 72.151,220.428 72.000,219.974 72.000 C 219.519 72.000,218.844 71.839,218.474 71.642 C 217.344 71.042,211.147 70.831,208.600 71.306 M195.900 103.482 C 196.395 103.578,197.205 103.578,197.700 103.482 C 198.195 103.387,197.790 103.309,196.800 103.309 C 195.810 103.309,195.405 103.387,195.900 103.482 M199.600 146.400 C 199.600 146.644,197.733 146.800,194.800 146.800 L 190.000 146.800 190.000 151.781 C 190.000 159.451,190.318 159.187,181.069 159.195 L 174.738 159.200 173.569 158.031 C 172.401 156.862,172.400 156.858,172.400 151.831 L 172.400 146.800 166.749 146.800 L 161.097 146.800 161.272 158.168 L 161.447 169.536 162.623 170.700 C 163.271 171.341,164.117 172.300,164.504 172.832 C 164.892 173.365,166.017 174.779,167.004 175.976 C 168.986 178.378,169.386 180.643,168.249 183.039 C 167.946 183.677,167.470 185.910,167.191 188.000 C 166.912 190.090,166.510 192.023,166.297 192.295 C 165.895 192.810,164.822 198.309,164.808 199.929 C 164.804 200.439,164.564 201.093,164.275 201.382 C 163.987 201.671,163.520 203.670,163.238 205.824 C 162.956 207.979,162.494 210.115,162.212 210.571 C 161.930 211.027,161.485 212.840,161.224 214.600 C 160.963 216.360,160.514 218.340,160.227 219.000 C 159.940 219.660,159.472 221.910,159.187 224.000 C 158.902 226.090,158.451 228.160,158.184 228.600 C 157.917 229.040,157.485 230.840,157.224 232.600 C 156.963 234.360,156.514 236.340,156.227 237.000 C 155.940 237.660,155.472 239.910,155.187 242.000 C 154.902 244.090,154.444 246.160,154.170 246.600 C 153.896 247.040,153.437 249.110,153.151 251.200 C 152.866 253.290,152.427 255.211,152.176 255.468 C 151.926 255.726,151.603 257.057,151.460 258.427 C 151.317 259.797,150.945 261.428,150.634 262.052 C 150.323 262.676,149.755 265.390,149.372 268.084 C 148.989 270.778,148.433 273.224,148.138 273.519 C 147.842 273.815,147.600 274.754,147.600 275.606 C 147.600 278.963,145.523 279.885,137.780 279.966 C 136.009 279.985,134.386 280.174,134.173 280.387 C 133.960 280.600,130.106 281.029,125.608 281.341 C 120.423 281.701,117.376 282.071,117.282 282.354 C 117.200 282.599,116.340 282.800,115.370 282.800 C 112.598 282.800,101.487 283.989,100.600 284.381 C 100.160 284.575,96.939 285.034,93.441 285.401 C 89.944 285.767,86.794 286.220,86.441 286.408 C 86.089 286.596,83.280 287.054,80.200 287.426 C 77.120 287.798,74.420 288.235,74.200 288.398 C 73.680 288.784,68.051 289.599,65.884 289.602 C 64.958 289.604,63.737 289.846,63.172 290.141 C 62.606 290.437,60.356 290.907,58.172 291.187 C 55.987 291.468,53.660 291.931,53.000 292.217 C 52.340 292.503,50.004 293.032,47.809 293.393 C 45.614 293.753,43.739 294.127,43.642 294.224 C 43.294 294.572,51.010 293.883,51.465 293.525 C 51.964 293.134,53.231 293.029,66.200 292.314 C 70.820 292.059,74.690 291.731,74.800 291.585 C 74.910 291.439,77.430 291.200,80.400 291.052 C 83.370 290.905,88.860 290.616,92.600 290.411 C 96.340 290.206,101.594 290.030,104.276 290.019 C 106.958 290.009,109.248 289.845,109.365 289.656 C 110.585 287.683,287.554 287.627,290.200 289.600 C 290.420 289.764,295.088 290.025,300.573 290.181 C 306.058 290.337,312.088 290.627,313.973 290.825 C 315.858 291.023,318.945 291.189,320.833 291.193 C 322.722 291.197,324.401 291.335,324.565 291.500 C 324.729 291.665,328.224 292.011,332.331 292.268 C 343.956 292.998,347.384 293.297,347.600 293.600 C 347.710 293.754,349.510 293.981,351.600 294.105 C 356.010 294.364,355.369 293.956,350.200 293.213 C 348.220 292.928,346.499 292.539,346.376 292.348 C 346.253 292.156,344.003 291.698,341.376 291.330 C 338.749 290.961,336.493 290.500,336.361 290.305 C 336.230 290.111,333.530 289.671,330.361 289.329 C 327.193 288.987,324.510 288.583,324.400 288.432 C 324.220 288.185,320.996 287.686,314.800 286.945 C 313.590 286.800,312.510 286.565,312.400 286.421 C 312.199 286.159,306.720 285.430,301.300 284.945 C 299.705 284.802,298.400 284.557,298.400 284.401 C 298.400 284.245,294.845 283.788,290.500 283.385 C 286.155 282.982,282.510 282.530,282.400 282.380 C 282.172 282.069,279.725 281.794,272.000 281.208 C 269.030 280.983,266.540 280.619,266.467 280.399 C 266.393 280.179,264.866 279.990,263.067 279.978 C 254.778 279.924,252.739 279.332,252.121 276.800 C 251.987 276.250,251.746 275.710,251.587 275.600 C 251.427 275.490,250.986 273.240,250.607 270.600 C 250.227 267.960,249.779 265.710,249.611 265.600 C 249.443 265.490,249.017 263.704,248.665 261.631 C 248.313 259.558,247.859 257.758,247.657 257.631 C 247.455 257.504,247.071 255.690,246.803 253.600 C 246.534 251.510,246.070 249.350,245.771 248.800 C 245.472 248.250,244.956 246.014,244.624 243.830 C 244.293 241.647,243.857 239.757,243.656 239.630 C 243.455 239.504,243.072 237.690,242.806 235.600 C 242.540 233.510,242.082 231.260,241.788 230.600 C 241.494 229.940,240.971 227.700,240.626 225.623 C 240.280 223.546,239.847 221.746,239.662 221.623 C 239.478 221.500,239.100 219.690,238.824 217.600 C 238.547 215.510,238.084 213.260,237.796 212.600 C 237.507 211.940,236.980 209.608,236.626 207.418 C 236.271 205.228,235.841 203.338,235.670 203.218 C 235.498 203.098,235.127 201.290,234.843 199.200 C 234.560 197.110,234.104 195.040,233.830 194.600 C 233.556 194.160,233.098 192.090,232.813 190.000 C 232.528 187.910,232.012 185.580,231.665 184.822 C 230.300 181.837,230.758 177.660,232.676 175.600 C 234.638 173.494,236.029 171.889,237.408 170.142 L 238.400 168.885 238.400 157.842 L 238.400 146.800 232.800 146.800 L 227.200 146.800 227.200 152.018 C 227.200 159.354,227.375 159.202,218.918 159.195 C 209.684 159.187,210.000 159.449,210.000 151.781 L 210.000 146.800 206.024 146.800 C 203.804 146.800,201.938 146.623,201.800 146.400 C 201.664 146.180,201.113 146.000,200.576 146.000 C 200.039 146.000,199.600 146.180,199.600 146.400 M57.674 242.676 C 57.633 246.018,57.735 248.837,57.900 248.939 C 58.065 249.042,58.153 247.208,58.095 244.863 C 57.908 237.281,57.750 236.459,57.674 242.676 M204.562 238.838 C 208.749 240.001,212.000 245.232,212.000 250.807 C 212.000 252.755,212.181 254.824,212.402 255.406 C 212.851 256.585,213.355 274.385,212.987 276.058 C 212.580 277.910,211.554 278.045,198.894 277.918 C 185.814 277.786,186.186 277.875,186.238 274.883 C 186.381 266.599,187.318 248.063,187.622 247.505 C 187.830 247.123,188.000 246.489,188.000 246.095 C 188.000 244.250,192.587 239.562,195.149 238.787 C 196.723 238.310,202.781 238.344,204.562 238.838 M337.998 242.718 L 338.195 247.000 338.313 243.035 C 338.378 240.855,338.289 238.928,338.115 238.754 C 337.942 238.579,337.889 240.363,337.998 242.718 " stroke="none" fill="#fcfcfc" fill-rule="evenodd"></path><path id="path3" d="M209.200 70.693 C 207.231 70.924,206.875 71.452,208.813 71.267 C 209.689 71.184,210.505 70.955,210.626 70.758 C 210.748 70.561,210.792 70.429,210.724 70.464 C 210.656 70.499,209.970 70.602,209.200 70.693 M215.500 71.082 C 215.995 71.178,216.805 71.178,217.300 71.082 C 217.795 70.987,217.390 70.909,216.400 70.909 C 215.410 70.909,215.005 70.987,215.500 71.082 M235.461 78.900 C 235.563 79.065,238.257 79.200,241.447 79.200 C 245.730 79.200,247.173 79.321,246.962 79.662 C 246.778 79.959,246.853 80.015,247.173 79.817 C 247.446 79.648,247.519 79.360,247.335 79.176 C 246.917 78.760,235.205 78.488,235.461 78.900 M238.956 85.771 C 238.835 86.085,238.804 86.760,238.886 87.271 C 238.995 87.954,239.088 87.804,239.237 86.700 C 239.447 85.147,239.336 84.781,238.956 85.771 M239.452 93.116 C 239.344 93.290,239.873 93.361,240.628 93.273 C 241.383 93.185,242.000 93.042,242.000 92.956 C 242.000 92.655,239.645 92.803,239.452 93.116 M203.385 123.800 C 203.385 134.580,203.437 138.933,203.500 133.472 C 203.563 128.012,203.563 119.192,203.500 113.872 C 203.437 108.553,203.385 113.020,203.385 123.800 M207.905 143.083 C 208.402 143.179,209.122 143.175,209.505 143.075 C 209.887 142.975,209.480 142.896,208.600 142.901 C 207.720 142.905,207.407 142.987,207.905 143.083 M212.799 149.319 L 212.997 155.400 213.110 149.631 C 213.172 146.459,213.083 143.722,212.911 143.550 C 212.740 143.378,212.689 145.974,212.799 149.319 M160.973 156.200 C 160.973 161.480,161.030 163.585,161.099 160.877 C 161.168 158.169,161.168 153.849,161.099 151.277 C 161.029 148.705,160.972 150.920,160.973 156.200 M226.955 151.800 C 226.956 154.660,227.020 155.778,227.097 154.283 C 227.174 152.789,227.174 150.449,227.096 149.083 C 227.018 147.718,226.955 148.940,226.955 151.800 M178.300 159.098 C 180.115 159.172,183.085 159.172,184.900 159.098 C 186.715 159.023,185.230 158.963,181.600 158.963 C 177.970 158.963,176.485 159.023,178.300 159.098 M215.100 159.098 C 216.915 159.172,219.885 159.172,221.700 159.098 C 223.515 159.023,222.030 158.963,218.400 158.963 C 214.770 158.963,213.285 159.023,215.100 159.098 M230.920 180.000 C 230.920 181.210,230.995 181.705,231.087 181.100 C 231.178 180.495,231.178 179.505,231.087 178.900 C 230.995 178.295,230.920 178.790,230.920 180.000 M234.768 198.700 C 234.959 200.081,234.987 200.109,235.119 199.051 C 235.198 198.419,235.105 197.745,234.912 197.552 C 234.710 197.350,234.649 197.840,234.768 198.700 M162.893 206.000 C 162.893 206.770,162.975 207.085,163.076 206.700 C 163.176 206.315,163.176 205.685,163.076 205.300 C 162.975 204.915,162.893 205.230,162.893 206.000 M236.893 208.000 C 236.893 208.770,236.975 209.085,237.076 208.700 C 237.176 208.315,237.176 207.685,237.076 207.300 C 236.975 206.915,236.893 207.230,236.893 208.000 M160.956 213.771 C 160.835 214.085,160.804 214.760,160.886 215.271 C 160.995 215.954,161.088 215.804,161.237 214.700 C 161.447 213.147,161.336 212.781,160.956 213.771 M238.800 217.176 C 238.800 217.823,238.942 218.441,239.116 218.548 C 239.290 218.656,239.361 218.127,239.273 217.372 C 239.076 215.691,238.800 215.577,238.800 217.176 M156.956 231.771 C 156.835 232.085,156.804 232.760,156.886 233.271 C 156.995 233.954,157.088 233.804,157.237 232.700 C 157.447 231.147,157.336 230.781,156.956 231.771 M242.901 235.400 C 242.905 236.280,242.987 236.593,243.083 236.095 C 243.179 235.598,243.175 234.878,243.075 234.495 C 242.975 234.113,242.896 234.520,242.901 235.400 M244.768 244.700 C 244.959 246.081,244.987 246.109,245.119 245.051 C 245.198 244.419,245.105 243.745,244.912 243.552 C 244.710 243.350,244.649 243.840,244.768 244.700 M152.956 249.771 C 152.835 250.085,152.804 250.760,152.886 251.271 C 152.995 251.954,153.088 251.804,153.237 250.700 C 153.447 249.147,153.336 248.781,152.956 249.771 M246.901 253.400 C 246.905 254.280,246.987 254.593,247.083 254.095 C 247.179 253.598,247.175 252.878,247.075 252.495 C 246.975 252.113,246.896 252.520,246.901 253.400 M186.975 257.720 C 186.865 258.006,186.827 260.661,186.890 263.620 L 187.004 269.000 187.202 263.099 C 187.397 257.290,187.372 256.688,186.975 257.720 M149.017 267.700 C 148.687 268.746,148.557 270.750,148.830 270.581 C 148.987 270.484,149.184 269.684,149.268 268.803 C 149.421 267.206,149.317 266.750,149.017 267.700 M212.948 272.000 C 212.948 274.310,213.014 275.255,213.095 274.100 C 213.176 272.945,213.176 271.055,213.095 269.900 C 213.014 268.745,212.948 269.690,212.948 272.000 M114.900 279.076 C 115.285 279.176,115.915 279.176,116.300 279.076 C 116.685 278.975,116.370 278.893,115.600 278.893 C 114.830 278.893,114.515 278.975,114.900 279.076 M111.700 279.476 C 112.085 279.576,112.715 279.576,113.100 279.476 C 113.485 279.375,113.170 279.293,112.400 279.293 C 111.630 279.293,111.315 279.375,111.700 279.476 M127.600 280.800 L 124.600 281.056 127.476 281.128 C 129.058 281.168,130.464 281.020,130.600 280.800 C 130.736 280.580,130.792 280.432,130.724 280.472 C 130.656 280.512,129.250 280.659,127.600 280.800 M269.556 280.918 C 269.732 281.093,271.299 281.181,273.038 281.115 L 276.200 280.993 272.718 280.797 C 270.803 280.688,269.380 280.743,269.556 280.918 M107.462 283.100 C 107.360 283.265,108.114 283.346,109.138 283.280 C 112.059 283.093,112.414 282.897,109.924 282.846 C 108.672 282.821,107.564 282.935,107.462 283.100 M288.105 283.087 C 288.714 283.179,289.614 283.177,290.105 283.082 C 290.597 282.987,290.100 282.911,289.000 282.914 C 287.900 282.917,287.497 282.995,288.105 283.087 M94.600 284.800 L 92.600 285.074 94.476 285.137 C 95.508 285.172,96.464 285.020,96.600 284.800 C 96.736 284.580,96.792 284.428,96.724 284.463 C 96.656 284.497,95.700 284.649,94.600 284.800 M302.900 285.087 C 303.505 285.178,304.495 285.178,305.100 285.087 C 305.705 284.995,305.210 284.920,304.000 284.920 C 302.790 284.920,302.295 284.995,302.900 285.087 M315.566 286.926 C 315.747 287.107,316.593 287.193,317.447 287.119 L 319.000 286.983 317.119 286.790 C 316.084 286.684,315.385 286.745,315.566 286.926 M80.705 287.083 C 81.202 287.179,81.922 287.175,82.305 287.075 C 82.687 286.975,82.280 286.896,81.400 286.901 C 80.520 286.905,80.207 286.987,80.705 287.083 M327.565 288.926 C 327.744 289.105,328.681 289.191,329.646 289.118 L 331.400 288.985 329.319 288.793 C 328.175 288.687,327.385 288.747,327.565 288.926 M69.300 289.076 C 69.685 289.176,70.315 289.176,70.700 289.076 C 71.085 288.975,70.770 288.893,70.000 288.893 C 69.230 288.893,68.915 288.975,69.300 289.076 M127.100 289.095 C 128.255 289.176,130.145 289.176,131.300 289.095 C 132.455 289.014,131.510 288.948,129.200 288.948 C 126.890 288.948,125.945 289.014,127.100 289.095 M269.300 289.096 C 270.565 289.175,272.635 289.175,273.900 289.096 C 275.165 289.016,274.130 288.951,271.600 288.951 C 269.070 288.951,268.035 289.016,269.300 289.096 M311.561 290.923 C 311.740 291.100,312.856 291.188,314.043 291.117 L 316.200 290.989 313.718 290.794 C 312.354 290.687,311.383 290.745,311.561 290.923 M339.552 290.912 C 339.745 291.105,340.419 291.198,341.051 291.119 C 342.109 290.987,342.081 290.959,340.700 290.768 C 339.840 290.649,339.350 290.710,339.552 290.912 M57.300 291.076 C 57.685 291.176,58.315 291.176,58.700 291.076 C 59.085 290.975,58.770 290.893,58.000 290.893 C 57.230 290.893,56.915 290.975,57.300 291.076 M84.300 291.089 C 85.015 291.178,86.185 291.178,86.900 291.089 C 87.615 291.001,87.030 290.928,85.600 290.928 C 84.170 290.928,83.585 291.001,84.300 291.089 M59.200 292.693 C 57.231 292.924,56.875 293.452,58.813 293.267 C 59.689 293.184,60.505 292.955,60.626 292.758 C 60.748 292.561,60.792 292.429,60.724 292.464 C 60.656 292.499,59.970 292.602,59.200 292.693 M47.452 293.116 C 47.344 293.290,47.873 293.361,48.628 293.273 C 49.383 293.185,50.000 293.042,50.000 292.956 C 50.000 292.655,47.645 292.803,47.452 293.116 M54.000 292.956 C 54.000 293.042,54.617 293.185,55.372 293.273 C 56.127 293.361,56.656 293.290,56.548 293.116 C 56.355 292.803,54.000 292.655,54.000 292.956 M339.500 293.082 C 339.995 293.178,340.805 293.178,341.300 293.082 C 341.795 292.987,341.390 292.909,340.400 292.909 C 339.410 292.909,339.005 292.987,339.500 293.082 " stroke="none" fill="#657486" fill-rule="evenodd"></path><path id="path4" d="M201.467 71.467 C 201.046 71.887,201.149 96.321,201.572 96.583 C 201.777 96.709,202.075 96.602,202.234 96.345 C 202.415 96.052,202.350 95.984,202.062 96.162 C 201.717 96.375,201.600 93.302,201.600 83.981 C 201.600 72.878,201.668 71.540,202.221 71.753 C 202.577 71.889,202.737 71.822,202.597 71.595 C 202.314 71.138,201.849 71.085,201.467 71.467 M243.000 92.400 L 241.800 92.705 242.876 92.753 C 243.468 92.779,244.064 92.620,244.200 92.400 C 244.336 92.180,244.392 92.021,244.324 92.047 C 244.256 92.073,243.660 92.232,243.000 92.400 M208.000 94.400 L 205.800 94.670 207.876 94.735 C 209.018 94.771,210.064 94.620,210.200 94.400 C 210.336 94.180,210.392 94.029,210.324 94.065 C 210.256 94.101,209.210 94.252,208.000 94.400 M217.948 94.509 C 218.118 94.679,221.755 94.768,226.029 94.708 L 233.800 94.598 225.719 94.399 C 221.275 94.290,217.778 94.339,217.948 94.509 M202.991 102.100 C 202.890 102.375,202.850 111.780,202.903 123.000 L 203.000 143.400 207.701 143.420 L 212.401 143.440 207.789 143.307 L 203.176 143.174 203.288 122.387 C 203.350 110.954,203.349 101.600,203.287 101.600 C 203.226 101.600,203.092 101.825,202.991 102.100 M198.496 123.489 L 198.400 143.177 192.900 143.301 L 187.400 143.425 192.913 143.512 C 197.020 143.578,198.474 143.473,198.617 143.100 C 198.722 142.825,198.760 133.870,198.700 123.200 L 198.592 103.800 198.496 123.489 M162.922 143.499 C 165.299 143.570,169.079 143.569,171.322 143.498 C 173.565 143.427,171.620 143.369,167.000 143.369 C 162.380 143.370,160.545 143.428,162.922 143.499 M232.795 143.496 L 241.190 143.616 241.303 157.108 L 241.416 170.600 241.408 157.000 L 241.400 143.400 232.900 143.388 L 224.399 143.376 232.795 143.496 M175.784 149.700 L 175.800 155.800 181.000 155.817 L 186.200 155.835 181.110 155.706 L 176.021 155.577 175.894 149.588 L 175.768 143.599 175.784 149.700 M186.962 149.800 C 186.962 153.320,187.024 154.706,187.098 152.881 C 187.172 151.056,187.172 148.176,187.097 146.481 C 187.022 144.786,186.961 146.280,186.962 149.800 M172.472 151.276 C 172.432 154.068,172.535 156.437,172.700 156.540 C 172.865 156.642,172.952 155.168,172.893 153.263 C 172.695 146.872,172.545 146.162,172.472 151.276 M238.577 158.000 C 238.577 164.490,238.632 167.145,238.699 163.900 C 238.766 160.655,238.766 155.345,238.699 152.100 C 238.632 148.855,238.577 151.510,238.577 158.000 M213.151 155.712 C 213.324 155.884,215.790 155.974,218.632 155.911 L 223.800 155.797 218.319 155.598 C 215.304 155.489,212.979 155.541,213.151 155.712 M161.134 167.792 C 161.252 169.637,161.457 170.083,162.734 171.255 L 164.200 172.600 162.900 171.181 C 161.824 170.006,161.600 169.442,161.600 167.905 C 161.600 166.883,161.465 165.963,161.300 165.861 C 161.135 165.758,161.060 166.627,161.134 167.792 M235.381 172.900 L 233.800 174.600 235.500 173.019 C 237.081 171.548,237.384 171.200,237.081 171.200 C 237.016 171.200,236.251 171.965,235.381 172.900 M162.048 175.400 C 162.404 175.840,162.795 176.470,162.916 176.800 C 163.103 177.309,163.142 177.304,163.168 176.762 C 163.186 176.411,162.795 175.781,162.300 175.362 C 161.408 174.606,161.406 174.607,162.048 175.400 M167.420 184.100 C 167.062 185.253,166.937 186.762,167.214 186.592 C 167.377 186.490,167.585 185.776,167.675 185.004 C 167.839 183.602,167.713 183.155,167.420 184.100 M232.328 187.032 C 232.416 187.788,232.611 188.483,232.761 188.576 C 232.910 188.668,232.961 188.125,232.872 187.368 C 232.784 186.612,232.589 185.917,232.439 185.824 C 232.290 185.732,232.239 186.275,232.328 187.032 M165.301 194.600 C 165.305 195.480,165.387 195.793,165.483 195.295 C 165.579 194.798,165.575 194.078,165.475 193.695 C 165.375 193.313,165.296 193.720,165.301 194.600 M163.420 202.100 C 163.062 203.253,162.937 204.762,163.214 204.592 C 163.377 204.490,163.585 203.776,163.675 203.004 C 163.839 201.602,163.713 201.155,163.420 202.100 M236.400 205.376 C 236.400 205.913,236.547 206.444,236.728 206.555 C 236.908 206.667,236.977 206.227,236.882 205.579 C 236.672 204.149,236.400 204.035,236.400 205.376 M238.368 214.700 C 238.559 216.081,238.587 216.109,238.719 215.051 C 238.798 214.419,238.705 213.745,238.512 213.552 C 238.310 213.350,238.249 213.840,238.368 214.700 M159.420 220.100 C 159.062 221.253,158.937 222.762,159.214 222.592 C 159.377 222.490,159.585 221.776,159.675 221.004 C 159.839 219.602,159.713 219.155,159.420 220.100 M240.501 223.800 C 240.505 224.680,240.587 224.993,240.683 224.495 C 240.779 223.998,240.775 223.278,240.675 222.895 C 240.575 222.513,240.496 222.920,240.501 223.800 M242.368 232.700 C 242.559 234.081,242.587 234.109,242.719 233.051 C 242.798 232.419,242.705 231.745,242.512 231.552 C 242.310 231.350,242.249 231.840,242.368 232.700 M155.420 238.100 C 155.062 239.253,154.937 240.762,155.214 240.592 C 155.377 240.490,155.585 239.776,155.675 239.004 C 155.839 237.602,155.713 237.155,155.420 238.100 M197.700 238.694 C 198.745 238.776,200.455 238.776,201.500 238.694 C 202.545 238.612,201.690 238.544,199.600 238.544 C 197.510 238.544,196.655 238.612,197.700 238.694 M244.501 241.800 C 244.505 242.680,244.587 242.993,244.683 242.495 C 244.779 241.998,244.775 241.278,244.675 240.895 C 244.575 240.513,244.496 240.920,244.501 241.800 M246.368 250.700 C 246.559 252.081,246.587 252.109,246.719 251.051 C 246.798 250.419,246.705 249.745,246.512 249.552 C 246.310 249.350,246.249 249.840,246.368 250.700 M151.417 256.100 C 151.087 257.146,150.957 259.150,151.230 258.981 C 151.387 258.884,151.584 258.084,151.668 257.203 C 151.821 255.606,151.717 255.150,151.417 256.100 M248.400 259.576 C 248.400 260.223,248.542 260.841,248.716 260.948 C 248.890 261.056,248.961 260.527,248.873 259.772 C 248.676 258.091,248.400 257.977,248.400 259.576 M250.335 268.836 C 250.417 269.699,250.604 270.479,250.750 270.569 C 250.895 270.659,250.947 270.027,250.865 269.164 C 250.783 268.301,250.596 267.521,250.450 267.431 C 250.305 267.341,250.253 267.973,250.335 268.836 M186.564 269.351 C 186.447 269.654,186.411 270.779,186.484 271.851 L 186.615 273.800 186.808 271.299 C 187.002 268.773,186.949 268.347,186.564 269.351 M147.417 274.100 C 147.087 275.146,146.957 277.150,147.230 276.981 C 147.387 276.884,147.584 276.084,147.668 275.203 C 147.821 273.606,147.717 273.150,147.417 274.100 M186.387 276.291 C 186.624 276.781,187.219 277.376,187.709 277.613 C 188.538 278.014,188.549 278.003,187.868 277.454 C 187.465 277.130,186.870 276.535,186.546 276.132 C 185.997 275.451,185.986 275.462,186.387 276.291 M143.400 279.094 C 142.520 279.182,141.670 279.381,141.510 279.536 C 141.351 279.692,141.981 279.751,142.910 279.669 C 143.840 279.586,144.771 279.356,144.980 279.159 C 145.189 278.962,145.279 278.830,145.180 278.867 C 145.081 278.904,144.280 279.006,143.400 279.094 M280.900 279.076 C 281.285 279.176,281.915 279.176,282.300 279.076 C 282.685 278.975,282.370 278.893,281.600 278.893 C 280.830 278.893,280.515 278.975,280.900 279.076 M114.100 279.476 C 114.485 279.576,115.115 279.576,115.500 279.476 C 115.885 279.375,115.570 279.293,114.800 279.293 C 114.030 279.293,113.715 279.375,114.100 279.476 M255.700 279.487 C 256.305 279.578,257.295 279.578,257.900 279.487 C 258.505 279.395,258.010 279.320,256.800 279.320 C 255.590 279.320,255.095 279.395,255.700 279.487 M284.100 279.476 C 284.485 279.576,285.115 279.576,285.500 279.476 C 285.885 279.375,285.570 279.293,284.800 279.293 C 284.030 279.293,283.715 279.375,284.100 279.476 M295.000 280.780 C 296.234 281.115,299.064 281.318,298.767 281.050 C 298.675 280.968,297.520 280.800,296.200 280.677 C 294.622 280.530,294.211 280.565,295.000 280.780 M121.400 281.200 L 118.200 281.453 121.276 281.527 C 122.980 281.567,124.463 281.422,124.600 281.200 C 124.736 280.980,124.792 280.833,124.724 280.873 C 124.656 280.914,123.160 281.061,121.400 281.200 M97.700 281.476 C 98.085 281.576,98.715 281.576,99.100 281.476 C 99.485 281.375,99.170 281.293,98.400 281.293 C 97.630 281.293,97.315 281.375,97.700 281.476 M276.000 281.356 C 276.000 281.442,276.617 281.585,277.372 281.673 C 278.127 281.761,278.656 281.690,278.548 281.516 C 278.355 281.203,276.000 281.055,276.000 281.356 M308.433 282.544 C 308.525 282.623,309.140 282.808,309.800 282.956 C 310.676 283.152,310.838 283.115,310.400 282.818 C 309.860 282.453,308.032 282.198,308.433 282.544 M84.600 283.200 C 83.530 283.472,83.508 283.505,84.400 283.505 C 84.950 283.505,85.940 283.368,86.600 283.200 C 87.670 282.928,87.692 282.895,86.800 282.895 C 86.250 282.895,85.260 283.032,84.600 283.200 M291.165 283.326 C 291.344 283.505,292.281 283.591,293.246 283.518 L 295.000 283.385 292.919 283.193 C 291.775 283.087,290.985 283.147,291.165 283.326 M103.852 283.516 C 103.744 283.690,104.318 283.767,105.128 283.687 C 107.342 283.469,107.605 283.267,105.724 283.232 C 104.802 283.214,103.959 283.342,103.852 283.516 M91.200 285.093 C 89.231 285.324,88.875 285.852,90.813 285.667 C 91.689 285.584,92.505 285.355,92.626 285.158 C 92.748 284.961,92.792 284.829,92.724 284.864 C 92.656 284.899,91.970 285.002,91.200 285.093 M306.200 285.403 C 307.114 285.721,309.529 285.809,309.348 285.516 C 309.241 285.342,308.398 285.214,307.476 285.232 C 306.554 285.249,305.980 285.326,306.200 285.403 M319.152 287.312 C 319.345 287.505,320.019 287.598,320.651 287.519 C 321.709 287.387,321.681 287.359,320.300 287.168 C 319.440 287.049,318.950 287.110,319.152 287.312 M77.905 287.483 C 78.402 287.579,79.122 287.575,79.505 287.475 C 79.887 287.375,79.480 287.296,78.600 287.301 C 77.720 287.305,77.407 287.387,77.905 287.483 M147.215 288.300 C 139.852 288.361,133.696 288.544,133.534 288.705 C 133.372 288.867,139.301 288.950,146.710 288.889 C 154.755 288.823,160.338 288.622,160.571 288.389 C 160.785 288.175,160.879 288.042,160.780 288.094 C 160.681 288.146,154.577 288.239,147.215 288.300 M241.528 288.489 C 241.687 288.648,247.520 288.828,254.489 288.889 C 261.459 288.950,267.031 288.870,266.872 288.711 C 266.713 288.552,260.880 288.372,253.911 288.311 C 246.941 288.250,241.369 288.330,241.528 288.489 M66.400 289.097 C 65.190 289.179,64.073 289.371,63.919 289.523 C 63.764 289.675,64.664 289.739,65.919 289.665 C 67.173 289.590,68.371 289.365,68.580 289.165 C 68.789 288.964,68.879 288.833,68.780 288.874 C 68.681 288.915,67.610 289.015,66.400 289.097 M331.566 289.326 C 331.747 289.507,332.593 289.593,333.447 289.519 L 335.000 289.383 333.119 289.190 C 332.084 289.084,331.385 289.145,331.566 289.326 M301.952 290.514 C 302.126 290.686,304.322 290.775,306.834 290.712 L 311.400 290.596 306.518 290.398 C 303.834 290.289,301.779 290.341,301.952 290.514 M90.300 290.696 C 91.675 290.774,93.925 290.774,95.300 290.696 C 96.675 290.618,95.550 290.554,92.800 290.554 C 90.050 290.554,88.925 290.618,90.300 290.696 M55.400 291.091 C 53.684 291.335,53.320 291.872,55.004 291.675 C 55.776 291.585,56.506 291.351,56.627 291.156 C 56.748 290.960,56.792 290.827,56.724 290.860 C 56.656 290.893,56.060 290.997,55.400 291.091 M342.705 291.483 C 343.202 291.579,343.922 291.575,344.305 291.475 C 344.687 291.375,344.280 291.296,343.400 291.301 C 342.520 291.305,342.207 291.387,342.705 291.483 M331.918 292.471 C 332.073 292.620,333.677 292.800,335.482 292.871 C 337.287 292.942,338.637 292.878,338.482 292.729 C 338.327 292.580,336.723 292.400,334.918 292.329 C 333.113 292.258,331.763 292.322,331.918 292.471 M62.512 292.695 C 63.564 292.777,65.184 292.776,66.112 292.692 C 67.040 292.608,66.180 292.541,64.200 292.542 C 62.220 292.543,61.460 292.612,62.512 292.695 M351.424 293.239 C 351.517 293.389,352.212 293.584,352.968 293.672 C 353.725 293.761,354.268 293.710,354.176 293.561 C 354.083 293.411,353.388 293.216,352.632 293.128 C 351.875 293.039,351.332 293.090,351.424 293.239 M43.462 294.500 C 43.564 294.665,44.166 294.800,44.800 294.800 C 45.434 294.800,46.036 294.665,46.138 294.500 C 46.240 294.335,45.638 294.200,44.800 294.200 C 43.962 294.200,43.360 294.335,43.462 294.500 M353.700 294.676 C 354.085 294.776,354.715 294.776,355.100 294.676 C 355.485 294.575,355.170 294.493,354.400 294.493 C 353.630 294.493,353.315 294.575,353.700 294.676 " stroke="none" fill="#546474" fill-rule="evenodd"></path></g></svg>